<svg width="500" height="400" viewBox="0 0 500 400" fill="none" xmlns="http://www.w3.org/2000/svg">
  <rect width="500" height="400" fill="none"/>
  <circle cx="250" cy="200" r="150" fill="#E2E8F0"/>
  <circle cx="250" cy="150" r="60" fill="#1a365d"/>
  <path d="M250 210C222.386 210 200 232.386 200 260V280H300V260C300 232.386 277.614 210 250 210Z" fill="#1a365d"/>
  <path d="M230 150C230 161.046 221.046 170 210 170C198.954 170 190 161.046 190 150C190 138.954 198.954 130 210 130C221.046 130 230 138.954 230 150Z" fill="#f7fafc"/>
  <path d="M310 150C310 161.046 301.046 170 290 170C278.954 170 270 161.046 270 150C270 138.954 278.954 130 290 130C301.046 130 310 138.954 310 150Z" fill="#f7fafc"/>
  <path d="M250 250C250 250 270 270 270 280H230C230 270 250 250 250 250Z" fill="#ed8936"/>
  <path d="M150 100C150 100 170 120 200 120C230 120 250 100 250 100" stroke="#1a365d" stroke-width="8" stroke-linecap="round"/>
  <path d="M300 100H400V150H350V300H300V100Z" fill="#1a365d"/>
  <path d="M400 100V300H450V150H500V100H400Z" fill="#1a365d"/>
  <path d="M300 100H350V150H300V100Z" fill="#1a365d"/>
</svg>
